HIERARCHY
ROOT joint_Root
{
	OFFSET 0.0 0.0 0.0
	CHANNELS 6 Xposition Yposition Zposition Zrotation Xrotation Yrotation 
	JOINT Hips
	{
		OFFSET 4.5925 91.4895 -427.239
		CHANNELS 6 Xposition Yposition Zposition Zrotation Xrotation Yrotation 
		JOINT Spine
		{
			OFFSET 15.7357 0.0 0.0
			CHANNELS 6 Xposition Yposition Zposition Zrotation Xrotation Yrotation 
			JOINT Chest
			{
				OFFSET 8.98455 -0.406207 0.0
				CHANNELS 6 Xposition Yposition Zposition Zrotation Xrotation Yrotation 
				JOINT Neck
				{
					OFFSET 16.3773 0.0 0.0
					CHANNELS 6 Xposition Yposition Zposition Zrotation Xrotation Yrotation 
					JOINT Head
					{
						OFFSET 6.45672 0.0 0.0
						CHANNELS 6 Xposition Yposition Zposition Zrotation Xrotation Yrotation 
						End Site
						{
							OFFSET 0.0 0.0 0.0
						}
					}
				}
				JOINT Shoulder_L
				{
					OFFSET 12.9942 -0.242716 4.98039
					CHANNELS 6 Xposition Yposition Zposition Zrotation Xrotation Yrotation 
					JOINT UpperArm_L
					{
						OFFSET 5.34809 0.0 0.0
						CHANNELS 6 Xposition Yposition Zposition Zrotation Xrotation Yrotation 
						JOINT LowerArm_L
						{
							OFFSET 24.3286 1.87007e-05 0.0
							CHANNELS 6 Xposition Yposition Zposition Zrotation Xrotation Yrotation 
							JOINT Hand_L
							{
								OFFSET 22.2916 0.0 0.0
								CHANNELS 6 Xposition Yposition Zposition Zrotation Xrotation Yrotation 
								End Site
								{
									OFFSET 0.0 0.0 0.0
								}
							}
						}
					}
				}
				JOINT Shoulder_R
				{
					OFFSET 12.9945 -0.242716 -4.98039
					CHANNELS 6 Xposition Yposition Zposition Zrotation Xrotation Yrotation 
					JOINT UpperArm_R
					{
						OFFSET -5.34813 0.0 0.0
						CHANNELS 6 Xposition Yposition Zposition Zrotation Xrotation Yrotation 
						JOINT LowerArm_R
						{
							OFFSET -24.3289 0.000322201 0.0
							CHANNELS 6 Xposition Yposition Zposition Zrotation Xrotation Yrotation 
							JOINT Hand_R
							{
								OFFSET -22.2915 -0.000108084 0.0
								CHANNELS 6 Xposition Yposition Zposition Zrotation Xrotation Yrotation 
								End Site
								{
									OFFSET 0.0 0.0 0.0
								}
							}
						}
					}
				}
			}
		}
		JOINT UpperLeg_L
		{
			OFFSET -2.19248 -6.46944 0.0
			CHANNELS 6 Xposition Yposition Zposition Zrotation Xrotation Yrotation 
			JOINT LowerLeg_L
			{
				OFFSET 39.0811 0.0 -1.23785e-05
				CHANNELS 6 Xposition Yposition Zposition Zrotation Xrotation Yrotation 
				JOINT Foot_L
				{
					OFFSET 40.9854 0.0 -1.26872e-05
					CHANNELS 6 Xposition Yposition Zposition Zrotation Xrotation Yrotation 
					JOINT Toes_L
					{
						OFFSET 11.7543 0.0 0.0
						CHANNELS 6 Xposition Yposition Zposition Zrotation Xrotation Yrotation 
						End Site
						{
							OFFSET 0.0 0.0 0.0
						}
					}
				}
			}
		}
		JOINT UpperLeg_R
		{
			OFFSET -2.19251 6.46944 0.0
			CHANNELS 6 Xposition Yposition Zposition Zrotation Xrotation Yrotation 
			JOINT LowerLeg_R
			{
				OFFSET -39.0811 -0.00228153 -0.0401928
				CHANNELS 6 Xposition Yposition Zposition Zrotation Xrotation Yrotation 
				JOINT Foot_R
				{
					OFFSET -40.9854 0.0 0.0
					CHANNELS 6 Xposition Yposition Zposition Zrotation Xrotation Yrotation 
					JOINT Toes_R
					{
						OFFSET -11.7543 0.0 0.0
						CHANNELS 6 Xposition Yposition Zposition Zrotation Xrotation Yrotation 
						End Site
						{
							OFFSET 0.0 0.0 0.0
						}
					}
				}
			}
		}
	}
}
MOTION
Frames:	6
Frame Time:	0.0333333
0.000000 0.000000 0.000000 0.000000 0.000000 -0.000000 10.630600 89.431000 0.313753 94.956600 -6.166840 10.950000 15.735700 0.000005 -0.000001 89.547200 82.103000 -92.776700 8.984550 -0.406207 -0.000000 8.031980 -0.131997 -6.443290 16.377300 -0.000001 -0.000001 1.374120 -4.412030 -2.392450 6.456720 -0.000001 -0.000000 -7.831130 -4.666280 -8.228910 12.994200 -0.242716 4.980390 -91.930100 7.099540 -74.748400 5.348090 -0.000007 -0.000001 -65.050800 31.319000 -12.483100 24.328600 0.000019 0.000005 7.446580 23.036600 -18.469700 22.291600 -0.000001 0.000005 6.101420 5.242690 1.625190 12.994500 -0.242716 -4.980390 88.886200 8.937190 -82.866400 -5.348130 -0.000001 -0.000004 -66.399300 35.834300 -11.915100 -24.328900 0.000322 -0.000009 2.083300 4.985550 -22.723500 -22.291500 -0.000108 -0.000004 11.695800 5.384150 -2.429180 -2.192480 -6.469440 -0.000000 171.869000 -17.272700 -0.294158 39.081100 -0.000007 -0.000012 0.078443 -0.128015 31.498400 40.985400 -0.000006 -0.000013 7.497230 0.434358 -72.477200 11.754300 -0.000000 0.000003 -0.000155 -0.001490 -16.634100 -2.192510 6.469440 -0.000001 163.220000 10.144100 175.554000 -39.081100 -0.002282 -0.040193 0.024668 -0.027432 37.936600 -40.985400 0.000008 0.000006 -1.478260 7.347430 -70.542200 -11.754300 -0.000006 -0.000006 -0.006052 -0.071305 -19.475100
0.000000 0.000000 0.000000 0.000000 0.000000 -0.000000 10.606200 89.435500 0.326176 94.966000 -6.123000 10.924300 15.735700 0.000005 -0.000001 89.627700 82.106100 -92.824800 8.984550 -0.406207 -0.000000 8.026390 -0.109629 -6.380220 16.377300 -0.000001 -0.000001 1.413420 -4.473090 -2.328670 6.456720 -0.000001 -0.000000 -7.698260 -4.753200 -8.270760 12.994200 -0.242716 4.980390 -91.970200 6.978410 -74.191200 5.348090 -0.000007 -0.000001 -64.434300 27.843900 -13.035600 24.328600 0.000019 0.000005 7.527420 23.746100 -18.166900 22.291600 -0.000001 0.000005 5.855990 5.237410 1.763280 12.994500 -0.242716 -4.980390 88.831300 8.863780 -82.457900 -5.348130 -0.000001 -0.000004 -65.660700 32.710100 -12.061300 -24.328900 0.000322 -0.000009 2.086450 5.103620 -22.281300 -22.291500 -0.000108 -0.000004 12.186500 5.385980 -2.487110 -2.192480 -6.469440 -0.000000 171.892000 -17.340400 -0.293341 39.081100 -0.000007 -0.000012 0.079889 -0.130469 31.479800 40.985400 -0.000006 -0.000013 7.515730 0.554036 -72.482900 11.754300 -0.000000 0.000003 -0.000150 -0.001452 -16.632700 -2.192510 6.469440 -0.000001 163.229000 10.144900 175.533000 -39.081100 -0.002282 -0.040193 0.023847 -0.026361 37.956700 -40.985400 0.000008 0.000006 -1.519400 7.311190 -70.510900 -11.754300 -0.000006 -0.000006 -0.006165 -0.072328 -19.516900
0.000000 0.000000 0.000000 0.000000 0.000000 -0.000000 10.584600 89.437000 0.313228 95.008200 -5.996630 10.838500 15.735700 0.000005 -0.000001 89.424300 82.172300 -92.587900 8.984550 -0.406207 -0.000000 7.892100 -0.160352 -6.309770 16.377300 -0.000001 -0.000001 1.649920 -4.456770 -2.382100 6.456720 -0.000001 -0.000000 -7.570750 -4.808740 -8.286490 12.994200 -0.242716 4.980390 -91.993700 6.749890 -73.502300 5.348090 -0.000007 -0.000001 -63.217200 24.495300 -14.087100 24.328600 0.000019 0.000005 7.858990 24.988500 -18.094800 22.291600 -0.000001 0.000005 5.501520 5.225120 2.081490 12.994500 -0.242716 -4.980390 88.781900 8.687540 -81.987300 -5.348130 -0.000001 -0.000004 -64.587600 29.223800 -12.441200 -24.328900 0.000322 -0.000009 1.857040 4.648100 -21.817900 -22.291500 -0.000108 -0.000004 12.324400 5.383110 -2.396220 -2.192480 -6.469440 -0.000000 171.832000 -17.277900 -0.378841 39.081100 -0.000007 -0.000012 0.080089 -0.130837 31.471800 40.985400 -0.000006 -0.000013 7.519970 0.608183 -72.466800 11.754300 -0.000000 0.000003 -0.000147 -0.001425 -16.631700 -2.192510 6.469440 -0.000001 163.194000 10.244000 175.467000 -39.081100 -0.002282 -0.040193 0.024751 -0.027490 37.986800 -40.985400 0.000008 0.000006 -1.492540 7.277080 -70.534700 -11.754300 -0.000006 -0.000006 -0.005854 -0.069505 -19.401700
0.000000 0.000000 0.000000 0.000000 0.000000 -0.000000 10.554800 89.451500 0.321917 95.021500 -5.909430 10.817300 15.735700 0.000005 -0.000001 89.502600 82.236400 -92.608800 8.984550 -0.406207 -0.000000 7.764470 -0.134408 -6.196910 16.377300 -0.000001 -0.000001 1.982160 -4.477570 -2.394430 6.456720 -0.000001 -0.000000 -7.431370 -4.829180 -8.430960 12.994200 -0.242716 4.980390 -91.979000 6.528930 -73.096700 5.348090 -0.000007 -0.000001 -61.316600 21.017200 -15.394100 24.328600 0.000019 0.000005 8.411020 26.437900 -18.371600 22.291600 -0.000001 0.000005 4.694300 5.217850 2.267720 12.994500 -0.242716 -4.980390 88.750400 8.448640 -81.555200 -5.348130 -0.000001 -0.000004 -63.163100 24.859600 -13.075600 -24.328900 0.000322 -0.000009 1.821060 4.674050 -21.325800 -22.291500 -0.000108 -0.000004 11.941700 5.378120 -2.239370 -2.192480 -6.469440 -0.000000 171.846000 -17.289900 -0.341512 39.081100 -0.000007 -0.000012 0.078761 -0.129027 31.400500 40.985400 -0.000006 -0.000013 7.525600 0.702375 -72.443600 11.754300 -0.000000 0.000003 -0.000143 -0.001395 -16.630600 -2.192510 6.469440 -0.000001 163.199000 10.261200 175.468000 -39.081100 -0.002282 -0.040193 0.024465 -0.027119 37.992700 -40.985400 0.000008 0.000006 -1.502700 7.207280 -70.472900 -11.754300 -0.000006 -0.000006 -0.005890 -0.069831 -19.415000
0.000000 0.000000 0.000000 0.000000 0.000000 -0.000000 10.535300 89.447600 0.323944 95.030800 -5.854930 10.780300 15.735700 0.000005 -0.000001 89.543100 82.322400 -92.582100 8.984550 -0.406207 -0.000000 7.592790 -0.117573 -6.064020 16.377300 -0.000001 -0.000001 2.320440 -4.456090 -2.389240 6.456720 -0.000001 -0.000000 -7.156130 -4.796080 -8.552780 12.994200 -0.242716 4.980390 -91.934600 6.245210 -72.750200 5.348090 -0.000007 -0.000001 -58.797500 17.409700 -17.096700 24.328600 0.000019 0.000005 8.515850 26.921600 -18.299200 22.291600 -0.000001 0.000005 3.942910 5.220700 2.194780 12.994500 -0.242716 -4.980390 88.739000 8.095550 -81.116000 -5.348130 -0.000001 -0.000004 -61.114900 20.485300 -14.223200 -24.328900 0.000322 -0.000009 1.651110 4.369320 -20.736600 -22.291500 -0.000108 -0.000004 12.133200 5.374870 -2.137970 -2.192480 -6.469440 -0.000000 171.845000 -17.203400 -0.410878 39.081100 -0.000007 -0.000012 0.076734 -0.125435 31.455800 40.985400 -0.000006 -0.000013 7.510710 0.741418 -72.452000 11.754300 -0.000000 0.000003 -0.000153 -0.001474 -16.633600 -2.192510 6.469440 -0.000001 163.211000 10.314700 175.457000 -39.081100 -0.002282 -0.040193 0.025455 -0.028387 37.990900 -40.985400 0.000008 0.000006 -1.521200 7.149390 -70.539600 -11.754300 -0.000006 -0.000006 -0.005965 -0.070514 -19.442900
0.000000 0.000000 0.000000 0.000000 0.000000 -0.000000 10.510400 89.442000 0.313968 95.083700 -5.785860 10.805900 15.735700 0.000005 -0.000001 89.527200 82.416000 -92.523400 8.984550 -0.406207 -0.000000 7.405490 -0.115443 -5.978530 16.377300 -0.000001 -0.000001 2.794660 -4.419410 -2.338240 6.456720 -0.000001 -0.000000 -6.931280 -4.718880 -8.519500 12.994200 -0.242716 4.980390 -91.821300 5.746820 -72.382300 5.348090 -0.000007 -0.000001 -56.131100 13.067800 -19.188800 24.328600 0.000019 0.000005 8.260890 26.976300 -17.747800 22.291600 -0.000001 0.000005 3.394260 5.204110 2.616090 12.994500 -0.242716 -4.980390 88.755200 7.564250 -80.626500 -5.348130 -0.000001 -0.000004 -58.720600 15.860700 -15.806400 -24.328900 0.000322 -0.000009 1.555880 4.264940 -20.076400 -22.291500 -0.000108 -0.000004 12.410600 5.365130 -1.836700 -2.192480 -6.469440 -0.000000 171.818000 -17.240100 -0.381431 39.081100 -0.000007 -0.000012 0.075514 -0.123425 31.459200 40.985400 -0.000006 -0.000013 7.516420 0.786954 -72.457600 11.754300 -0.000000 0.000003 -0.000137 -0.001344 -16.628800 -2.192510 6.469440 -0.000001 163.163000 10.311800 175.458000 -39.081100 -0.002282 -0.040193 0.024812 -0.027497 38.058600 -40.985400 0.000008 0.000006 -1.570660 7.092110 -70.550000 -11.754300 -0.000006 -0.000006 -0.005965 -0.070517 -19.443000
